<?xml version="1.0" standalone="no"?>
<!DOCTYPE svg PUBLIC "-//W3C//DTD SVG 20010904//EN" "http://www.w3.org/TR/2001/REC-SVG-20010904/DTD/svg10.dtd">
<svg version="1.0" xmlns="http://www.w3.org/2000/svg" width="270.000000pt" height="186.000000pt" viewBox="0 0 270.000000 186.000000" preserveAspectRatio="xMidYMid meet">
    <metadata>
        Created by potrace 1.15, written by Peter Selinger 2001-2017
    </metadata>
    <g transform="translate(0.000000,186.000000) scale(0.100000,-0.100000)" fill="#ffffff" stroke="none">
        <path d="M572 1108 c3 -620 3 -634 24 -673 38 -74 75 -92 427 -209 l327 -110
327 110 c352 117 389 135 427 209 21 39 21 53 24 673 l3 632 -781 0 -781 0 3
-632z m898 352 l0 -170 42 21 c72 37 150 59 226 66 l72 6 0 -122 0 -121 100 0
100 0 0 -42 c-1 -160 -96 -342 -238 -453 -70 -55 -190 -119 -255 -135 l-47
-12 0 -129 0 -129 -120 0 -120 0 0 129 0 128 -47 13 c-159 43 -334 176 -420
320 -34 56 -61 149 -69 233 l-7 77 102 0 101 0 0 121 0 122 73 -6 c63 -4 138
-27 245 -74 9 -4 12 32 12 161 l0 166 125 0 125 0 0 -170z" />
        <path d="M1290 1375 c0 -107 -3 -195 -6 -195 -3 0 -19 9 -34 20 -53 38 -195
100 -242 106 l-48 7 0 -67 c0 -44 4 -66 12 -66 33 0 161 -76 203 -121 70 -75
98 -145 103 -258 l5 -94 -42 6 c-136 18 -294 170 -331 320 l-12 47 -71 0 -70
0 6 -57 c20 -192 246 -414 465 -456 l62 -12 0 -122 0 -123 60 0 60 0 0 124 0
123 44 6 c111 16 266 105 356 205 66 74 119 181 127 255 l6 57 -71 0 -71 0
-12 -42 c-20 -76 -60 -142 -128 -208 -72 -72 -142 -111 -205 -113 -40 -2 -41
-1 -44 32 -5 52 16 159 44 217 31 66 117 147 196 184 35 17 69 30 76 30 8 0
12 20 12 65 0 62 -1 65 -24 65 -58 0 -260 -87 -281 -120 -20 -32 -25 7 -25
185 l0 195 -60 0 -60 0 0 -195z" />
        <path d="M970 1077 c0 -82 110 -231 203 -275 42 -20 42 -20 45 0 2 10 -6 50
-17 87 -30 99 -116 188 -208 216 -21 6 -23 3 -23 -28z" />
        <path d="M1657 1084 c-98 -51 -162 -140 -174 -244 -7 -61 3 -64 70 -20 89 60
162 162 173 243 8 56 1 58 -69 21z" />
    </g>
</svg>
